<svg width="12" height="13" viewBox="0 0 12 13" fill="none" xmlns="http://www.w3.org/2000/svg">
<path d="M11.34 8.73087C10.52 8.73087 9.72667 8.59754 8.98667 8.35754C8.75333 8.27754 8.49333 8.33754 8.31333 8.51754L7.26667 9.83087C5.38 8.93087 3.61333 7.23087 2.67333 5.27754L3.97333 4.17087C4.15333 3.98421 4.20667 3.72421 4.13333 3.49087C3.88667 2.75087 3.76 1.95754 3.76 1.13754C3.76 0.777539 3.46 0.477539 3.1 0.477539H0.793333C0.433333 0.477539 0 0.637539 0 1.13754C0 7.33087 5.15333 12.4775 11.34 12.4775C11.8133 12.4775 12 12.0575 12 11.6909V9.39087C12 9.03087 11.7 8.73087 11.34 8.73087Z" fill="#DD4141"/>
</svg>
